<?xml version="1.0" encoding="utf-8"?>
<!-- Generator: Adobe Illustrator 26.0.3, SVG Export Plug-In . SVG Version: 6.00 Build 0)  -->
<svg version="1.1" id="Layer_1" xmlns="http://www.w3.org/2000/svg" xmlns:xlink="http://www.w3.org/1999/xlink" x="0px" y="0px"
	 viewBox="0 0 1079.93 768" style="enable-background:new 0 0 1079.93 768;" xml:space="preserve">
<style type="text/css">
	.st0{fill:#D4B685;}
	.st1{fill:#FFFFFF;}
</style>
<g>
	<g>
		<circle class="st0" cx="541.8" cy="342.58" r="28.33"/>
		<g>
			<g>
				<path class="st0" d="M539.97,473.66l-8.35-7.29c-8.95-7.82-16.96-16.64-24.29-25.02c-44.91-51.36-102.01-131.43-119-221.21
					c-6.9-36.45-4.64-65.06,7.31-92.76c12.57-29.16,33.17-54.44,57.98-71.21c25.6-17.29,56.89-27.84,85.87-28.94l0.48-0.02
					l0.48,0.02c28.97,1.1,60.27,11.65,85.87,28.94c24.82,16.76,45.41,42.05,57.98,71.21c11.95,27.71,14.2,56.32,7.31,92.76
					c-16.98,89.78-74.09,169.85-119,221.21c-7.33,8.38-15.34,17.21-24.29,25.02L539.97,473.66z M539.97,52.78
					c-25.74-0.25-51.1,10.23-72.13,24.44c-20.84,14.08-38.2,35.46-48.88,60.22c-9.95,23.08-11.65,46.4-5.67,77.99
					c15.92,84.17,70.33,160.22,113.16,209.21c4.28,4.9,8.79,9.94,13.52,14.72c4.73-4.78,9.24-9.82,13.52-14.72
					c42.84-48.98,97.24-125.04,113.16-209.21c5.98-31.59,4.28-54.91-5.67-77.99c-10.67-24.75-28.03-46.14-48.88-60.22
					c-20.94-14.14-45.81-23.95-71.32-24.43C540.51,52.78,540.24,52.78,539.97,52.78z"/>
			</g>
			<polygon class="st0" points="517.58,305.73 517.58,108.48 610.77,157.74 530.51,197.56 529.69,298.75 			"/>
		</g>
	</g>
	<g>
		<path class="st1" d="M57.76,625.57l6.58-8.1c6.59,6.26,14.36,10.36,24.4,10.36c10.26,0,15.55-5.4,15.55-11.34
			c0-7.02-6.15-9.72-18.57-12.52c-15.11-3.56-25.15-8.1-25.15-21.48c0-12.41,10.8-21.81,25.69-21.81c11.44,0,19.97,4.21,27.1,10.47
			l-6.26,8.2c-6.26-5.72-13.71-9.07-21.27-9.07c-8.31,0-14.14,5.29-14.14,11.23c0,6.91,6.37,9.28,18.57,12.2
			c14.79,3.45,25.05,8.42,25.05,21.7c0,12.52-9.5,22.02-26.99,22.02C75.89,637.44,65.64,633.12,57.76,625.57z"/>
		<path class="st1" d="M163.32,562.09h12.09l18.24,56.57l18.57-56.57h12.09l18.57,56.57l18.24-56.57h12.09l-24.4,74.16h-10.9
			l-19.54-59.05l-19.76,59.05h-10.9L163.32,562.09z"/>
		<path class="st1" d="M324.15,562.09h10.9v74.16h-10.9V562.09z"/>
		<path class="st1" d="M392.04,562.09h10.9l42.64,56.24v-56.24h10.9v74.16h-10.9l-42.64-56.24v56.24h-10.9V562.09z"/>
		<path class="st1" d="M547.58,596.31h30.66v29.58c-7.02,7.13-18.68,11.66-29.15,11.66c-20.83,0-38.65-17.6-38.65-38.43
			c0-20.83,17.81-38.32,38.65-38.32c10.47,0,22.13,4.43,29.15,11.66l-7.66,7.34c-5.07-5.51-13.82-8.96-21.48-8.96
			c-14.9,0-27.42,12.95-27.42,28.28c0,15.44,12.52,28.39,27.42,28.39c6.26,0,13.28-2.27,18.35-6.15v-15.55h-19.86V596.31z"/>
		<path class="st1" d="M684.98,621.14h-38.65l-6.48,15.11h-12.09l31.85-74.16h12.09l31.85,74.16h-12.09L684.98,621.14z
			 M680.77,611.32l-15.11-35.19l-15.11,35.19H680.77z"/>
		<path class="st1" d="M755.13,562.09h35.19c12.41,0,21.16,7.67,21.16,18.46c0,7.77-3.89,12.63-10.58,16.41
			c8.64,4.21,13.6,10.9,13.6,19.11c0,11.88-9.5,20.19-22.78,20.19h-36.6V562.09z M787.63,592.96c7.45,0,12.74-4.43,12.74-10.58
			c0-6.15-5.29-10.69-12.74-10.69h-21.59v21.27H787.63z M789.25,626.64c8.31,0,14.14-5.07,14.14-12.2c0-7.13-5.83-12.2-14.14-12.2
			h-23.21v24.4H789.25z"/>
		<path class="st1" d="M916.83,626.1v10.15h-50.31v-74.16h11.01v64.02H916.83z"/>
		<path class="st1" d="M978.67,572.24v21.16h39.29v10.15h-39.29v22.56h43.5v10.15h-54.52v-74.16h54.52v10.15H978.67z"/>
	</g>
	<g>
		<g>
			<path class="st0" d="M419.99,718.3h16.72v16.13c-3.83,3.89-10.18,6.36-15.9,6.36c-11.36,0-21.08-9.6-21.08-20.96
				s9.71-20.9,21.08-20.9c5.71,0,12.07,2.41,15.9,6.36l-4.18,4c-2.77-3-7.54-4.89-11.72-4.89c-8.12,0-14.95,7.06-14.95,15.43
				c0,8.42,6.83,15.48,14.95,15.48c3.42,0,7.24-1.24,10.01-3.35v-8.48h-10.83V718.3z"/>
			<path class="st0" d="M485.06,719.83c0-11.36,9.66-20.9,21.02-20.9c11.36,0,20.9,9.54,20.9,20.9s-9.54,20.96-20.9,20.96
				C494.71,740.79,485.06,731.19,485.06,719.83z M520.91,719.83c0-8.36-6.77-15.43-14.84-15.43c-8.07,0-14.89,7.06-14.89,15.43
				c0,8.42,6.83,15.48,14.89,15.48C514.14,735.31,520.91,728.25,520.91,719.83z"/>
			<path class="st0" d="M602.71,734.54v5.53h-27.43v-40.44h6v34.91H602.71z"/>
			<path class="st0" d="M656.47,705.17v11.77h21.43v5.53h-21.43v17.6h-6v-40.44h29.73v5.53H656.47z"/>
		</g>
		<g>
			<rect x="57.76" y="718.02" class="st0" width="299.05" height="3.68"/>
			<rect x="723.12" y="718.02" class="st0" width="299.05" height="3.68"/>
		</g>
	</g>
</g>
</svg>
