<?xml version="1.0" encoding="utf-8"?>
<!-- Generator: Adobe Illustrator 26.0.3, SVG Export Plug-In . SVG Version: 6.00 Build 0)  -->
<svg version="1.1" id="Layer_1" xmlns="http://www.w3.org/2000/svg" xmlns:xlink="http://www.w3.org/1999/xlink" x="0px" y="0px"
	 viewBox="0 0 573.35 768" style="enable-background:new 0 0 573.35 768;" xml:space="preserve">
<style type="text/css">
	.st0{fill:#D4B685;}
</style>
<g>
	<circle class="st0" cx="289.51" cy="526.52" r="43.82"/>
	<g>
		<g>
			<path class="st0" d="M286.67,729.29l-12.92-11.28c-13.84-12.09-26.24-25.75-37.57-38.7c-69.47-79.44-157.8-203.3-184.07-342.17
				c-10.67-56.38-7.18-100.63,11.3-143.49c19.45-45.1,51.3-84.22,89.69-110.14c39.59-26.74,88-43.06,132.82-44.76l0.75-0.03
				l0.75,0.03c44.82,1.71,93.23,18.02,132.82,44.76c38.39,25.93,70.24,65.04,89.69,110.14c18.48,42.86,21.97,87.11,11.3,143.49
				c-26.27,138.88-114.6,262.73-184.07,342.17c-11.33,12.96-23.73,26.62-37.57,38.7L286.67,729.29z M286.67,78.25
				c-39.81-0.39-79.04,15.83-111.58,37.81c-32.24,21.78-59.09,54.86-75.6,93.14c-15.39,35.7-18.02,71.77-8.77,120.63
				c24.63,130.19,108.78,247.84,175.04,323.61c6.62,7.57,13.6,15.37,20.91,22.76c7.31-7.39,14.29-15.19,20.91-22.76
				C373.85,577.67,458,460.02,482.63,329.83c9.24-48.86,6.62-84.94-8.77-120.63c-16.51-38.29-43.36-71.37-75.6-93.14
				C365.86,94.18,327.39,79,287.94,78.27C287.52,78.26,287.09,78.25,286.67,78.25z"/>
		</g>
		<polygon class="st0" points="252.05,469.53 252.05,164.41 396.19,240.61 272.05,302.21 270.78,458.74 		"/>
	</g>
</g>
</svg>
